<?xml version="1.0" encoding="UTF-8"?><svg xmlns="http://www.w3.org/2000/svg" viewBox="0 0 689.6 164.78"><defs><style>.d{fill:#fff;}</style></defs><g id="a"/><g id="b"><g id="c"><g><g><path class="d" d="M188.26,127.88h15.46v2.88h-15.46v11.34h16.15v2.97h-19.58v-30.51h19.58v2.97h-16.15v10.34Z"/><path class="d" d="M243.11,145.09h-5.63l-12.81-20.77-2.06-3.43-1.05-1.69-1.01-1.69h-.09l.04,1.14v26.44h-3.43v-30.51h5.63l11.12,18.21,2.93,4.76,1.46,2.38,1.42,2.38h.09l-.05-1.14v-26.58h3.43v30.51Z"/><path class="d" d="M281.4,129.94c.09,1.28,.09,1.42,.09,3.29,0,5.58-.18,7.14-1.14,8.78-.73,1.37-1.97,2.29-3.71,2.84-1.23,.37-3.71,.55-7.55,.55-5.99,0-8.14-.46-10.29-2.24-1.37-1.14-2.38-3.57-2.52-6.13-.05-1.37-.05-1.65-.09-7.59v-1.28c0-5.49,.37-7.82,1.46-10.06,1.01-1.97,2.75-3.11,5.35-3.57,1.01-.18,2.97-.27,5.76-.27,6.86,0,8.05,.18,10.16,1.51,1.14,.73,2.01,2.15,2.29,3.71,.14,1.1,.18,1.69,.18,3.98h-3.38c-.05-5.9-.55-6.22-9.7-6.22-5.26,0-6.95,.5-7.82,2.42-.69,1.51-.87,3.52-.87,9.74,0,7.96,.09,9.15,.82,10.66,.96,1.92,2.84,2.42,9.19,2.42,7.78,0,8.42-.59,8.42-7.78,0-.32,0-1.01-.05-1.78h-9.7v-2.97h13.08Z"/><path class="d" d="M297.77,145.09h-3.43v-30.51h3.43v30.51Z"/><path class="d" d="M337.8,145.09h-5.63l-12.81-20.77-2.06-3.43-1.05-1.69-1.01-1.69h-.09l.04,1.14v26.44h-3.43v-30.51h5.63l11.12,18.21,2.93,4.76,1.46,2.38,1.42,2.38h.09l-.05-1.14v-26.58h3.43v30.51Z"/><path class="d" d="M355.28,127.88h15.46v2.88h-15.46v11.34h16.15v2.97h-19.58v-30.51h19.58v2.97h-16.15v10.34Z"/><path class="d" d="M387.53,127.88h15.46v2.88h-15.46v11.34h16.15v2.97h-19.58v-30.51h19.58v2.97h-16.15v10.34Z"/><path class="d" d="M416.35,114.57h14.5c6.54,0,8.92,2.33,8.92,8.78,0,5.54-1.19,7.37-5.26,8.05v.05c3.16,.18,4.89,2.29,4.85,5.9v7.73h-3.43v-6.95c.09-3.89-1.65-5.44-5.76-5.31h-10.38v12.26h-3.43v-30.51Zm13.36,15.28c5.03,0,6.63-1.33,6.63-5.44,0-3.16-.18-4.48-.82-5.35-.69-1.01-2.2-1.51-4.62-1.51h-11.12v12.31h9.93Z"/><path class="d" d="M456.29,145.09h-3.43v-30.51h3.43v30.51Z"/><path class="d" d="M496.32,145.09h-5.63l-12.81-20.77-2.06-3.43-1.05-1.69-1.01-1.69h-.09l.04,1.14v26.44h-3.43v-30.51h5.63l11.12,18.21,2.93,4.76,1.46,2.38,1.42,2.38h.09l-.05-1.14v-26.58h3.43v30.51Z"/><path class="d" d="M534.61,129.94c.09,1.28,.09,1.42,.09,3.29,0,5.58-.18,7.14-1.14,8.78-.73,1.37-1.97,2.29-3.71,2.84-1.23,.37-3.71,.55-7.55,.55-5.99,0-8.14-.46-10.29-2.24-1.37-1.14-2.38-3.57-2.52-6.13-.05-1.37-.05-1.65-.09-7.59v-1.28c0-5.49,.37-7.82,1.46-10.06,1.01-1.97,2.75-3.11,5.35-3.57,1.01-.18,2.97-.27,5.76-.27,6.86,0,8.05,.18,10.16,1.51,1.14,.73,2.01,2.15,2.29,3.71,.14,1.1,.18,1.69,.18,3.98h-3.38c-.05-5.9-.55-6.22-9.7-6.22-5.26,0-6.95,.5-7.82,2.42-.69,1.51-.87,3.52-.87,9.74,0,7.96,.09,9.15,.82,10.66,.96,1.92,2.84,2.42,9.19,2.42,7.78,0,8.42-.59,8.42-7.78,0-.32,0-1.01-.05-1.78h-9.7v-2.97h13.08Z"/></g><g><path class="d" d="M209.4,97.97h-25.24V31.05h25.24c43.6,.19,43.6,66.73,0,66.92Zm-8.13-15.58h8.13c21.32,0,21.32-35.76,0-35.76h-8.13v35.76Z"/><path class="d" d="M293.14,89.56h-26.39l-3.92,8.41h-16.73v-2.49l30.11-65.3h7.36l30.21,65.3v2.49h-16.73l-3.92-8.41Zm-13.29-32.22l-7.55,17.59h15.3l-7.74-17.59Z"/><path class="d" d="M377.65,95.49v2.49h-19.12l-11.47-19.69h-8.89v19.69h-17.11V31.05h29.35c26.29,.1,31.07,31.74,14.15,43.21l13.1,21.22Zm-27.25-49.14c-4.02-.1-8.22,0-12.24,0v16.73h12.24c9.27,0,9.75-16.63,0-16.73Z"/><path class="d" d="M428.04,46.35h-24.76v9.46h22.75v15.2h-22.75v11.76h25.62v15.2h-42.64V31.05h41.78v15.3Z"/><path class="d" d="M467.14,97.97h-25.24V31.05h25.24c43.6,.19,43.6,66.73,0,66.92Zm-8.13-15.58h8.13c21.32,0,21.32-35.76,0-35.76h-8.13v35.76Z"/><path class="d" d="M550.21,89.56h-26.39l-3.92,8.41h-16.73v-2.49l30.11-65.3h7.36l30.21,65.3v2.49h-16.73l-3.92-8.41Zm-13.29-32.22l-7.55,17.59h15.3l-7.74-17.59Z"/><path class="d" d="M570.48,46.35v-15.3h49.71v15.3h-16.35v51.63h-16.92V46.35h-16.44Z"/><path class="d" d="M668.95,89.56h-26.39l-3.92,8.41h-16.73v-2.49l30.11-65.3h7.36l30.21,65.3v2.49h-16.73l-3.92-8.41Zm-13.29-32.22l-7.55,17.59h15.3l-7.74-17.59Z"/></g><path class="d" d="M82.39,0L0,82.39l82.39,82.39,82.39-82.39L82.39,0Zm-20.66,126.34l21.51-34.06-26.89-7.17,44.82-46.61-19.72,35.85,27.14,7.17-46.86,44.82Z"/></g></g></g></svg>