<?xml version="1.0" encoding="UTF-8" standalone="no"?>
<!-- Created with Inkscape (http://www.inkscape.org/) -->

<svg
   width="55.362915mm"
   height="13.229167mm"
   viewBox="0 0 55.362915 13.229167"
   version="1.1"
   id="svg1"
   xml:space="preserve"
   xmlns="http://www.w3.org/2000/svg"
   xmlns:svg="http://www.w3.org/2000/svg"><defs
     id="defs1"><style
       id="style1">.d{fill:#fff;}</style></defs><g
     id="layer1"
     transform="translate(-158.58536,-141.88543)"><g
       id="g177"
       transform="matrix(0.08028381,0,0,0.08028381,158.58536,141.88542)"><g
         id="a" /><g
         id="b"><g
           id="c"><g
             id="g20"><g
               id="g11"><path
                 class="d"
                 d="m 188.26,127.88 h 15.46 v 2.88 h -15.46 v 11.34 h 16.15 v 2.97 h -19.58 v -30.51 h 19.58 v 2.97 h -16.15 v 10.34 z"
                 id="path1-3" /><path
                 class="d"
                 d="m 243.11,145.09 h -5.63 l -12.81,-20.77 -2.06,-3.43 -1.05,-1.69 -1.01,-1.69 h -0.09 l 0.04,1.14 v 26.44 h -3.43 v -30.51 h 5.63 l 11.12,18.21 2.93,4.76 1.46,2.38 1.42,2.38 h 0.09 l -0.05,-1.14 v -26.58 h 3.43 v 30.51 z"
                 id="path2-5" /><path
                 class="d"
                 d="m 281.4,129.94 c 0.09,1.28 0.09,1.42 0.09,3.29 0,5.58 -0.18,7.14 -1.14,8.78 -0.73,1.37 -1.97,2.29 -3.71,2.84 -1.23,0.37 -3.71,0.55 -7.55,0.55 -5.99,0 -8.14,-0.46 -10.29,-2.24 -1.37,-1.14 -2.38,-3.57 -2.52,-6.13 -0.05,-1.37 -0.05,-1.65 -0.09,-7.59 v -1.28 c 0,-5.49 0.37,-7.82 1.46,-10.06 1.01,-1.97 2.75,-3.11 5.35,-3.57 1.01,-0.18 2.97,-0.27 5.76,-0.27 6.86,0 8.05,0.18 10.16,1.51 1.14,0.73 2.01,2.15 2.29,3.71 0.14,1.1 0.18,1.69 0.18,3.98 h -3.38 c -0.05,-5.9 -0.55,-6.22 -9.7,-6.22 -5.26,0 -6.95,0.5 -7.82,2.42 -0.69,1.51 -0.87,3.52 -0.87,9.74 0,7.96 0.09,9.15 0.82,10.66 0.96,1.92 2.84,2.42 9.19,2.42 7.78,0 8.42,-0.59 8.42,-7.78 0,-0.32 0,-1.01 -0.05,-1.78 h -9.7 v -2.97 h 13.08 z"
                 id="path3-6" /><path
                 class="d"
                 d="m 297.77,145.09 h -3.43 v -30.51 h 3.43 z"
                 id="path4-2" /><path
                 class="d"
                 d="m 337.8,145.09 h -5.63 l -12.81,-20.77 -2.06,-3.43 -1.05,-1.69 -1.01,-1.69 h -0.09 l 0.04,1.14 v 26.44 h -3.43 v -30.51 h 5.63 l 11.12,18.21 2.93,4.76 1.46,2.38 1.42,2.38 h 0.09 l -0.05,-1.14 v -26.58 h 3.43 v 30.51 z"
                 id="path5-9" /><path
                 class="d"
                 d="m 355.28,127.88 h 15.46 v 2.88 h -15.46 v 11.34 h 16.15 v 2.97 h -19.58 v -30.51 h 19.58 v 2.97 h -16.15 v 10.34 z"
                 id="path6-1" /><path
                 class="d"
                 d="m 387.53,127.88 h 15.46 v 2.88 h -15.46 v 11.34 h 16.15 v 2.97 H 384.1 v -30.51 h 19.58 v 2.97 h -16.15 v 10.34 z"
                 id="path7-2" /><path
                 class="d"
                 d="m 416.35,114.57 h 14.5 c 6.54,0 8.92,2.33 8.92,8.78 0,5.54 -1.19,7.37 -5.26,8.05 v 0.05 c 3.16,0.18 4.89,2.29 4.85,5.9 v 7.73 h -3.43 v -6.95 c 0.09,-3.89 -1.65,-5.44 -5.76,-5.31 h -10.38 v 12.26 h -3.43 v -30.51 z m 13.36,15.28 c 5.03,0 6.63,-1.33 6.63,-5.44 0,-3.16 -0.18,-4.48 -0.82,-5.35 -0.69,-1.01 -2.2,-1.51 -4.62,-1.51 h -11.12 v 12.31 h 9.93 z"
                 id="path8-7" /><path
                 class="d"
                 d="m 456.29,145.09 h -3.43 v -30.51 h 3.43 z"
                 id="path9-0" /><path
                 class="d"
                 d="m 496.32,145.09 h -5.63 l -12.81,-20.77 -2.06,-3.43 -1.05,-1.69 -1.01,-1.69 h -0.09 l 0.04,1.14 v 26.44 h -3.43 v -30.51 h 5.63 l 11.12,18.21 2.93,4.76 1.46,2.38 1.42,2.38 h 0.09 l -0.05,-1.14 v -26.58 h 3.43 v 30.51 z"
                 id="path10-9" /><path
                 class="d"
                 d="m 534.61,129.94 c 0.09,1.28 0.09,1.42 0.09,3.29 0,5.58 -0.18,7.14 -1.14,8.78 -0.73,1.37 -1.97,2.29 -3.71,2.84 -1.23,0.37 -3.71,0.55 -7.55,0.55 -5.99,0 -8.14,-0.46 -10.29,-2.24 -1.37,-1.14 -2.38,-3.57 -2.52,-6.13 -0.05,-1.37 -0.05,-1.65 -0.09,-7.59 v -1.28 c 0,-5.49 0.37,-7.82 1.46,-10.06 1.01,-1.97 2.75,-3.11 5.35,-3.57 1.01,-0.18 2.97,-0.27 5.76,-0.27 6.86,0 8.05,0.18 10.16,1.51 1.14,0.73 2.01,2.15 2.29,3.71 0.14,1.1 0.18,1.69 0.18,3.98 h -3.38 c -0.05,-5.9 -0.55,-6.22 -9.7,-6.22 -5.26,0 -6.95,0.5 -7.82,2.42 -0.69,1.51 -0.87,3.52 -0.87,9.74 0,7.96 0.09,9.15 0.82,10.66 0.96,1.92 2.84,2.42 9.19,2.42 7.78,0 8.42,-0.59 8.42,-7.78 0,-0.32 0,-1.01 -0.05,-1.78 h -9.7 v -2.97 h 13.08 z"
                 id="path11-3" /></g><g
               id="g19"><path
                 class="d"
                 d="M 209.4,97.97 H 184.16 V 31.05 h 25.24 c 43.6,0.19 43.6,66.73 0,66.92 z m -8.13,-15.58 h 8.13 c 21.32,0 21.32,-35.76 0,-35.76 h -8.13 z"
                 id="path12-6" /><path
                 class="d"
                 d="m 293.14,89.56 h -26.39 l -3.92,8.41 H 246.1 v -2.49 l 30.11,-65.3 h 7.36 l 30.21,65.3 v 2.49 h -16.73 l -3.92,-8.41 z M 279.85,57.34 272.3,74.93 h 15.3 l -7.74,-17.59 z"
                 id="path13-0" /><path
                 class="d"
                 d="m 377.65,95.49 v 2.49 H 358.53 L 347.06,78.29 h -8.89 V 97.98 H 321.06 V 31.05 h 29.35 c 26.29,0.1 31.07,31.74 14.15,43.21 l 13.1,21.22 z M 350.4,46.35 c -4.02,-0.1 -8.22,0 -12.24,0 v 16.73 h 12.24 c 9.27,0 9.75,-16.63 0,-16.73 z"
                 id="path14-6" /><path
                 class="d"
                 d="m 428.04,46.35 h -24.76 v 9.46 h 22.75 v 15.2 h -22.75 v 11.76 h 25.62 v 15.2 H 386.26 V 31.05 h 41.78 z"
                 id="path15" /><path
                 class="d"
                 d="M 467.14,97.97 H 441.9 V 31.05 h 25.24 c 43.6,0.19 43.6,66.73 0,66.92 z m -8.13,-15.58 h 8.13 c 21.32,0 21.32,-35.76 0,-35.76 h -8.13 z"
                 id="path16" /><path
                 class="d"
                 d="m 550.21,89.56 h -26.39 l -3.92,8.41 h -16.73 v -2.49 l 30.11,-65.3 h 7.36 l 30.21,65.3 v 2.49 h -16.73 l -3.92,-8.41 z m -13.29,-32.22 -7.55,17.59 h 15.3 l -7.74,-17.59 z"
                 id="path17" /><path
                 class="d"
                 d="m 570.48,46.35 v -15.3 h 49.71 v 15.3 H 603.84 V 97.98 H 586.92 V 46.35 Z"
                 id="path18" /><path
                 class="d"
                 d="m 668.95,89.56 h -26.39 l -3.92,8.41 h -16.73 v -2.49 l 30.11,-65.3 h 7.36 l 30.21,65.3 v 2.49 h -16.73 l -3.92,-8.41 z m -13.29,-32.22 -7.55,17.59 h 15.3 l -7.74,-17.59 z"
                 id="path19" /></g><path
               class="d"
               d="M 82.39,0 0,82.39 82.39,164.78 164.78,82.39 Z M 61.73,126.34 83.24,92.28 56.35,85.11 101.17,38.5 81.45,74.35 l 27.14,7.17 z"
               id="path20" /></g></g></g></g></g><style
     type="text/css"
     id="style1-2">
	.st0{fill:url(#SVGID_1_);}
	.st1{fill:#FFFFFF;stroke:#FFFFFF;stroke-width:0.3968;stroke-miterlimit:10;}
	.st2{opacity:0.28;}
	.st3{fill:#8D2F1D;}
	.st4{enable-background:new    ;}
	.st5{fill:#FFFFFF;}
	.st6{clip-path:url(#SVGID_00000132065251629415299160000006859413518873304508_);fill:#FFFFFF;}
</style></svg>
