<?xml version="1.0" encoding="UTF-8" standalone="no"?>
<!-- Created with Inkscape (http://www.inkscape.org/) -->

<svg
   width="76.256424mm"
   height="13.229167mm"
   viewBox="0 0 76.256424 13.229167"
   version="1.1"
   id="svg1"
   xml:space="preserve"
   xmlns="http://www.w3.org/2000/svg"
   xmlns:svg="http://www.w3.org/2000/svg"><defs
     id="defs1"><style
       id="style1">.d{fill:#fff;}</style></defs><g
     id="layer1"
     transform="translate(-224.26395,-141.88543)"><g
       id="g178"
       transform="matrix(0.55118491,0,0,0.55118491,224.26396,141.8861)"><path
         d="M 89.75,18.62 A 8.36,8.36 0 0 1 81.2,10 a 8.33,8.33 0 0 1 2.43,-6.1 8.25,8.25 0 0 1 6.12,-2.48 7.62,7.62 0 0 1 6,2.69 L 94.28,5.58 A 5.64,5.64 0 0 0 89.75,3.44 6.22,6.22 0 0 0 85.18,5.28 6.38,6.38 0 0 0 83.36,10 a 6.38,6.38 0 0 0 1.82,4.74 6.18,6.18 0 0 0 4.57,1.84 6.44,6.44 0 0 0 5,-2.42 l 1.54,1.5 a 8,8 0 0 1 -2.87,2.17 8.67,8.67 0 0 1 -3.67,0.79 z M 100.12,1.79 V 18.26 H 98 V 1.79 Z m 1.82,10.83 a 6,6 0 0 1 1.64,-4.3 5.57,5.57 0 0 1 4.16,-1.7 5.51,5.51 0 0 1 4.14,1.7 5.92,5.92 0 0 1 1.65,4.3 5.87,5.87 0 0 1 -1.65,4.3 5.47,5.47 0 0 1 -4.14,1.7 5.53,5.53 0 0 1 -4.16,-1.7 6,6 0 0 1 -1.64,-4.3 z m 2.12,0 a 4.1,4.1 0 0 0 1.06,2.94 3.6,3.6 0 0 0 5.24,0 4.1,4.1 0 0 0 1.06,-2.94 4.07,4.07 0 0 0 -1.06,-2.92 3.56,3.56 0 0 0 -5.24,0 4.07,4.07 0 0 0 -1.06,2.92 z m 21.17,5.64 h -2 v -1.57 h -0.1 a 3.75,3.75 0 0 1 -1.48,1.38 4.23,4.23 0 0 1 -2.08,0.55 4.18,4.18 0 0 1 -3.19,-1.18 4.74,4.74 0 0 1 -1.11,-3.37 V 7 h 2.11 v 6.94 a 2.49,2.49 0 0 0 2.79,2.76 2.63,2.63 0 0 0 2.11,-1 3.69,3.69 0 0 0 0.85,-2.45 V 7 h 2.12 z m 7.16,0.36 a 5,5 0 0 1 -3.79,-1.74 6.24,6.24 0 0 1 -1.6,-4.26 6.2,6.2 0 0 1 1.56,-4.25 4.94,4.94 0 0 1 3.79,-1.75 4.78,4.78 0 0 1 2.27,0.53 4,4 0 0 1 1.58,1.4 h 0.09 L 136.24,7 V 1.79 h 2.11 v 16.47 h -2 v -1.57 h -0.09 a 4,4 0 0 1 -1.58,1.4 4.78,4.78 0 0 1 -2.29,0.53 z m 0.35,-1.93 a 3.21,3.21 0 0 0 2.55,-1.13 4.17,4.17 0 0 0 1,-2.94 4.21,4.21 0 0 0 -1,-2.92 3.23,3.23 0 0 0 -2.55,-1.15 3.29,3.29 0 0 0 -2.55,1.15 4.21,4.21 0 0 0 -1,2.92 4.14,4.14 0 0 0 1,2.92 3.29,3.29 0 0 0 2.55,1.15 z"
         style="fill:#5f6368"
         id="path1-2" /><g
         id="_75x24px"
         data-name="75x24px"><path
           d="M 9.49,18.62 A 9.46,9.46 0 0 1 0,9.31 9.46,9.46 0 0 1 9.49,0 8.91,8.91 0 0 1 15.9,2.57 L 14.09,4.36 A 6.51,6.51 0 0 0 9.49,2.54 6.69,6.69 0 0 0 2.78,9.31 6.69,6.69 0 0 0 9.49,16.08 6.25,6.25 0 0 0 14.21,14.21 5.26,5.26 0 0 0 15.6,11 H 9.49 V 8.47 h 8.6 A 8.38,8.38 0 0 1 18.22,10.06 8.37,8.37 0 0 1 16,16 8.57,8.57 0 0 1 9.49,18.62 Z"
           style="fill:#4285f4"
           id="path2-6" /><path
           d="m 31.52,12.62 a 5.94,5.94 0 1 1 -11.87,0 5.94,5.94 0 1 1 11.87,0 z m -2.6,0 a 3.35,3.35 0 1 0 -6.67,0 3.35,3.35 0 1 0 6.67,0 z"
           style="fill:#ea4335"
           id="path3-1" /><path
           d="m 44.83,12.62 a 5.94,5.94 0 1 1 -11.87,0 5.94,5.94 0 1 1 11.87,0 z m -2.6,0 a 3.35,3.35 0 1 0 -6.68,0 3.35,3.35 0 1 0 6.68,0 z"
           style="fill:#fbbc04"
           id="path4-8" /><path
           d="m 57.8,7 v 10.76 c 0,4.42 -2.63,6.24 -5.73,6.24 a 5.75,5.75 0 0 1 -5.34,-3.54 l 2.31,-1 a 3.32,3.32 0 0 0 3,2.14 c 2,0 3.22,-1.23 3.22,-3.52 V 17.22 H 55.2 a 4.16,4.16 0 0 1 -3.2,1.4 6,6 0 0 1 0,-12 4.22,4.22 0 0 1 3.2,1.38 h 0.09 V 7 Z m -2.33,5.66 A 3.39,3.39 0 0 0 52.25,9 a 3.48,3.48 0 0 0 -3.35,3.66 3.45,3.45 0 0 0 3.35,3.61 3.35,3.35 0 0 0 3.22,-3.62 z"
           style="fill:#4285f4"
           id="path5-7" /><path
           d="M 62.43,0.64 V 18.26 H 59.79 V 0.64 Z"
           style="fill:#34a853"
           id="path6-9" /><path
           d="m 72.83,14.6 2.06,1.4 a 6,6 0 0 1 -5,2.66 5.81,5.81 0 0 1 -5.89,-6 5.52,5.52 0 0 1 10.75,-2.18 l 0.27,0.69 -8,3.31 a 3.07,3.07 0 0 0 2.92,1.82 3.44,3.44 0 0 0 2.89,-1.7 z M 66.52,12.44 71.9,10.22 A 2.34,2.34 0 0 0 69.66,9 3.29,3.29 0 0 0 66.52,12.44 Z"
           style="fill:#ea4335"
           id="path7-20" /></g></g></g><style
     type="text/css"
     id="style1-2">
	.st0{fill:url(#SVGID_1_);}
	.st1{fill:#FFFFFF;stroke:#FFFFFF;stroke-width:0.3968;stroke-miterlimit:10;}
	.st2{opacity:0.28;}
	.st3{fill:#8D2F1D;}
	.st4{enable-background:new    ;}
	.st5{fill:#FFFFFF;}
	.st6{clip-path:url(#SVGID_00000132065251629415299160000006859413518873304508_);fill:#FFFFFF;}
</style></svg>
